# xmcd
# Track frame offsets:
# 150
# 13643
# 29439
# 42972
# 59488
# 77409
# 86918
# 103160
# 116057
# 133366
# 142389
# 159752
# 176425
# 191020
# 202003
#
# Disc length: 2976 seconds
# Revision: 0
# Processed by: cddbd v1.4PL0 Copyright (c) Steve Scherf et al.
# Submitted via: VisiTrax 2.9.5.180 - For more info visit www.synapsa.com
#
DISCID=d90b9e0f
DTITLE=Cumberland Highlanders - Cumberland Mountain Home
DYEAR=2000
DGENRE=Bluegrass
TTITLE0=Cumberland Mountain home
TTITLE1=What more do you need
TTITLE2=Rough Creek ramble
TTITLE3=Shackles and chains
TTITLE4=Lost sinner's prayer
TTITLE5=Hey hey hey
TTITLE6=Rejoice with mom ang dad
TTITLE7=Litttle community church
TTITLE8=Big black mountain
TTITLE9=I've lived a lot
TTITLE10=I looked down that road
TTITLE11=Next sunday darling is m birthday
TTITLE12=Harbor of love
TTITLE13=The old home
TTITLE14=The stanleys will sing again
EXTD=
EXTT0=
EXTT1=
EXTT2=
EXTT3=
EXTT4=
EXTT5=
EXTT6=
EXTT7=
EXTT8=
EXTT9=
EXTT10=
EXTT11=
EXTT12=
EXTT13=
EXTT14=
PLAYORDER=
